<svg width="229" height="221" viewBox="0 0 229 221" fill="none" xmlns="http://www.w3.org/2000/svg">
<rect width="229" height="221" rx="28" fill="black"/>
<path d="M56.5824 101V74.8182H73.6108V78.794H61.3253V85.902H72.7287V89.8778H61.3253V97.0241H73.7131V101H56.5824ZM90.7607 92.7415V81.3636H95.3885V101H90.9013V97.5099H90.6967C90.2536 98.6094 89.5249 99.5085 88.5107 100.207C87.505 100.906 86.2649 101.256 84.7905 101.256C83.5036 101.256 82.3658 100.97 81.3771 100.399C80.397 99.8196 79.63 98.9801 79.076 97.8807C78.522 96.7727 78.245 95.4347 78.245 93.8665V81.3636H82.8729V93.1506C82.8729 94.3949 83.2138 95.3835 83.8956 96.1165C84.5774 96.8494 85.4723 97.2159 86.5803 97.2159C87.2621 97.2159 87.9226 97.0497 88.5618 96.7173C89.201 96.3849 89.7251 95.8906 90.1342 95.2344C90.5518 94.5696 90.7607 93.7386 90.7607 92.7415ZM100.147 101V81.3636H104.635V84.6364H104.839C105.197 83.5028 105.811 82.6293 106.68 82.0156C107.558 81.3935 108.559 81.0824 109.684 81.0824C109.94 81.0824 110.225 81.0952 110.541 81.1207C110.865 81.1378 111.133 81.1676 111.346 81.2102V85.4673C111.15 85.3991 110.839 85.3395 110.413 85.2884C109.995 85.2287 109.591 85.1989 109.199 85.1989C108.355 85.1989 107.596 85.3821 106.923 85.7486C106.258 86.1065 105.734 86.6051 105.35 87.2443C104.967 87.8835 104.775 88.6207 104.775 89.456V101H100.147ZM122.178 101.384C120.26 101.384 118.598 100.962 117.192 100.118C115.786 99.2741 114.695 98.0937 113.919 96.5767C113.152 95.0597 112.768 93.2869 112.768 91.2585C112.768 89.2301 113.152 87.4531 113.919 85.9276C114.695 84.402 115.786 83.2173 117.192 82.3736C118.598 81.5298 120.26 81.108 122.178 81.108C124.095 81.108 125.757 81.5298 127.163 82.3736C128.57 83.2173 129.656 84.402 130.423 85.9276C131.199 87.4531 131.587 89.2301 131.587 91.2585C131.587 93.2869 131.199 95.0597 130.423 96.5767C129.656 98.0937 128.57 99.2741 127.163 100.118C125.757 100.962 124.095 101.384 122.178 101.384ZM122.203 97.6761C123.243 97.6761 124.112 97.3906 124.811 96.8196C125.51 96.2401 126.03 95.4645 126.371 94.4929C126.72 93.5213 126.895 92.4389 126.895 91.2457C126.895 90.044 126.72 88.9574 126.371 87.9858C126.03 87.0057 125.51 86.2259 124.811 85.6463C124.112 85.0668 123.243 84.777 122.203 84.777C121.138 84.777 120.251 85.0668 119.544 85.6463C118.845 86.2259 118.321 87.0057 117.972 87.9858C117.631 88.9574 117.46 90.044 117.46 91.2457C117.46 92.4389 117.631 93.5213 117.972 94.4929C118.321 95.4645 118.845 96.2401 119.544 96.8196C120.251 97.3906 121.138 97.6761 122.203 97.6761ZM135.515 108.364V81.3636H140.066V84.6108H140.334C140.573 84.1335 140.909 83.6264 141.344 83.0895C141.779 82.544 142.367 82.0795 143.108 81.696C143.85 81.304 144.796 81.108 145.946 81.108C147.463 81.108 148.831 81.4957 150.05 82.2713C151.277 83.0384 152.249 84.1761 152.965 85.6847C153.689 87.1847 154.051 89.0256 154.051 91.2074C154.051 93.3636 153.698 95.196 152.99 96.7045C152.283 98.2131 151.32 99.3636 150.101 100.156C148.882 100.949 147.502 101.345 145.959 101.345C144.834 101.345 143.901 101.158 143.159 100.783C142.418 100.408 141.821 99.956 141.37 99.4276C140.926 98.8906 140.581 98.3835 140.334 97.9062H140.142V108.364H135.515ZM140.053 91.1818C140.053 92.4517 140.232 93.5639 140.59 94.5185C140.956 95.473 141.48 96.2187 142.162 96.7557C142.853 97.2841 143.688 97.5483 144.668 97.5483C145.691 97.5483 146.547 97.2756 147.238 96.7301C147.928 96.1761 148.448 95.4219 148.797 94.4673C149.155 93.5043 149.334 92.4091 149.334 91.1818C149.334 89.9631 149.159 88.8807 148.81 87.9347C148.461 86.9886 147.941 86.2472 147.25 85.7102C146.56 85.1733 145.699 84.9048 144.668 84.9048C143.679 84.9048 142.84 85.1648 142.15 85.6847C141.459 86.2045 140.935 86.9332 140.577 87.8707C140.228 88.8082 140.053 89.9119 140.053 91.1818ZM163.665 101.396C162.421 101.396 161.3 101.175 160.303 100.732C159.314 100.28 158.53 99.6151 157.951 98.7372C157.38 97.8594 157.094 96.777 157.094 95.4901C157.094 94.3821 157.299 93.4659 157.708 92.7415C158.117 92.017 158.675 91.4375 159.382 91.0028C160.09 90.5682 160.887 90.2401 161.773 90.0185C162.668 89.7884 163.593 89.6222 164.547 89.5199C165.698 89.4006 166.631 89.294 167.347 89.2003C168.063 89.098 168.583 88.9446 168.907 88.7401C169.239 88.527 169.405 88.1989 169.405 87.7557V87.679C169.405 86.7159 169.12 85.9702 168.549 85.4418C167.978 84.9134 167.155 84.6491 166.081 84.6491C164.948 84.6491 164.049 84.8963 163.384 85.3906C162.728 85.8849 162.284 86.4687 162.054 87.142L157.733 86.5284C158.074 85.3352 158.637 84.3381 159.421 83.5369C160.205 82.7273 161.164 82.1222 162.297 81.7216C163.431 81.3125 164.684 81.108 166.056 81.108C167.002 81.108 167.944 81.2188 168.881 81.4403C169.819 81.6619 170.675 82.0284 171.451 82.5398C172.226 83.0426 172.848 83.7287 173.317 84.598C173.794 85.4673 174.033 86.554 174.033 87.858V101H169.584V98.3026H169.431C169.15 98.848 168.753 99.3594 168.242 99.8366C167.739 100.305 167.104 100.685 166.337 100.974C165.578 101.256 164.688 101.396 163.665 101.396ZM164.867 97.9957C165.796 97.9957 166.601 97.8125 167.283 97.446C167.965 97.071 168.489 96.5767 168.855 95.9631C169.23 95.3494 169.418 94.6804 169.418 93.956V91.642C169.273 91.7614 169.026 91.8722 168.676 91.9744C168.336 92.0767 167.952 92.1662 167.526 92.2429C167.1 92.3196 166.678 92.3878 166.26 92.4474C165.843 92.5071 165.48 92.5582 165.174 92.6009C164.483 92.6946 163.865 92.848 163.32 93.0611C162.775 93.2741 162.344 93.5724 162.029 93.956C161.713 94.331 161.556 94.8168 161.556 95.4134C161.556 96.2656 161.867 96.9091 162.489 97.3438C163.111 97.7784 163.904 97.9957 164.867 97.9957Z" fill="url(#paint0_linear_3_2)"/>
<path d="M42.9897 133.091V144H41.7112L35.7666 135.435H35.6601V144H34.3391V133.091H35.6175L41.5834 141.678H41.6899V133.091H42.9897ZM48.7864 144.17C48.0478 144.17 47.3997 143.995 46.8422 143.643C46.2882 143.292 45.855 142.8 45.5425 142.168C45.2335 141.536 45.0791 140.797 45.0791 139.952C45.0791 139.099 45.2335 138.355 45.5425 137.72C45.855 137.084 46.2882 136.591 46.8422 136.239C47.3997 135.887 48.0478 135.712 48.7864 135.712C49.5251 135.712 50.1714 135.887 50.7254 136.239C51.2829 136.591 51.7161 137.084 52.0251 137.72C52.3376 138.355 52.4938 139.099 52.4938 139.952C52.4938 140.797 52.3376 141.536 52.0251 142.168C51.7161 142.8 51.2829 143.292 50.7254 143.643C50.1714 143.995 49.5251 144.17 48.7864 144.17ZM48.7864 143.041C49.3475 143.041 49.8092 142.897 50.1714 142.61C50.5336 142.322 50.8017 141.944 50.9757 141.475C51.1497 141.006 51.2367 140.499 51.2367 139.952C51.2367 139.405 51.1497 138.895 50.9757 138.423C50.8017 137.951 50.5336 137.569 50.1714 137.278C49.8092 136.987 49.3475 136.841 48.7864 136.841C48.2254 136.841 47.7637 136.987 47.4015 137.278C47.0393 137.569 46.7712 137.951 46.5972 138.423C46.4232 138.895 46.3362 139.405 46.3362 139.952C46.3362 140.499 46.4232 141.006 46.5972 141.475C46.7712 141.944 47.0393 142.322 47.4015 142.61C47.7637 142.897 48.2254 143.041 48.7864 143.041ZM58.802 144V133.091H62.4881C63.3439 133.091 64.0435 133.245 64.5868 133.554C65.1337 133.86 65.5385 134.273 65.8013 134.795C66.0641 135.317 66.1954 135.9 66.1954 136.543C66.1954 137.185 66.0641 137.77 65.8013 138.295C65.542 138.821 65.1408 139.24 64.5974 139.552C64.0541 139.861 63.3581 140.016 62.5094 140.016H59.8673V138.844H62.4668C63.0527 138.844 63.5232 138.743 63.8783 138.54C64.2334 138.338 64.4909 138.064 64.6507 137.72C64.8141 137.372 64.8957 136.979 64.8957 136.543C64.8957 136.106 64.8141 135.715 64.6507 135.371C64.4909 135.026 64.2317 134.756 63.873 134.561C63.5143 134.362 63.0385 134.263 62.4454 134.263H60.123V144H58.802ZM68.153 144V135.818H69.3675V137.054H69.4527C69.6019 136.649 69.8718 136.321 70.2624 136.069C70.653 135.816 71.0934 135.69 71.5834 135.69C71.6757 135.69 71.7911 135.692 71.9296 135.696C72.0681 135.699 72.1729 135.705 72.2439 135.712V136.99C72.2013 136.979 72.1036 136.963 71.951 136.942C71.8018 136.917 71.6438 136.905 71.4769 136.905C71.0791 136.905 70.724 136.988 70.4115 137.155C70.1026 137.319 69.8576 137.546 69.6764 137.837C69.4989 138.125 69.4101 138.453 69.4101 138.822V144H68.153ZM76.9154 144.17C76.1271 144.17 75.447 143.996 74.8753 143.648C74.3071 143.297 73.8686 142.807 73.5596 142.178C73.2542 141.546 73.1015 140.811 73.1015 139.973C73.1015 139.135 73.2542 138.396 73.5596 137.757C73.8686 137.114 74.2983 136.614 74.8487 136.255C75.4027 135.893 76.049 135.712 76.7876 135.712C77.2137 135.712 77.6345 135.783 78.05 135.925C78.4655 136.067 78.8437 136.298 79.1846 136.617C79.5255 136.933 79.7972 137.352 79.9996 137.874C80.202 138.396 80.3032 139.039 80.3032 139.803V140.335H73.9964V139.249H79.0248C79.0248 138.787 78.9325 138.375 78.7478 138.013C78.5667 137.651 78.3075 137.365 77.9701 137.155C77.6363 136.946 77.2421 136.841 76.7876 136.841C76.2869 136.841 75.8536 136.965 75.4879 137.214C75.1257 137.459 74.8469 137.778 74.6516 138.173C74.4563 138.567 74.3586 138.989 74.3586 139.44V140.165C74.3586 140.783 74.4652 141.306 74.6782 141.736C74.8948 142.162 75.1949 142.487 75.5784 142.711C75.962 142.931 76.4076 143.041 76.9154 143.041C77.2457 143.041 77.544 142.995 77.8103 142.903C78.0802 142.807 78.3128 142.665 78.5081 142.477C78.7034 142.285 78.8544 142.047 78.9609 141.763L80.1754 142.104C80.0475 142.516 79.8327 142.878 79.5309 143.19C79.229 143.499 78.8561 143.741 78.4122 143.915C77.9684 144.085 77.4694 144.17 76.9154 144.17ZM88.6568 135.818L85.6313 144H84.3528L81.3273 135.818H82.6909L84.9494 142.338H85.0347L87.2932 135.818H88.6568ZM90.3161 144V135.818H91.5732V144H90.3161ZM90.9553 134.455C90.7103 134.455 90.499 134.371 90.3214 134.204C90.1474 134.037 90.0604 133.837 90.0604 133.602C90.0604 133.368 90.1474 133.167 90.3214 133C90.499 132.833 90.7103 132.75 90.9553 132.75C91.2003 132.75 91.4098 132.833 91.5839 133C91.7614 133.167 91.8502 133.368 91.8502 133.602C91.8502 133.837 91.7614 134.037 91.5839 134.204C91.4098 134.371 91.2003 134.455 90.9553 134.455ZM97.3061 144.17C96.5177 144.17 95.8377 143.996 95.2659 143.648C94.6978 143.297 94.2592 142.807 93.9502 142.178C93.6448 141.546 93.4921 140.811 93.4921 139.973C93.4921 139.135 93.6448 138.396 93.9502 137.757C94.2592 137.114 94.6889 136.614 95.2393 136.255C95.7933 135.893 96.4396 135.712 97.1782 135.712C97.6044 135.712 98.0252 135.783 98.4407 135.925C98.8561 136.067 99.2343 136.298 99.5752 136.617C99.9161 136.933 100.188 137.352 100.39 137.874C100.593 138.396 100.694 139.039 100.694 139.803V140.335H94.387V139.249H99.4154C99.4154 138.787 99.3231 138.375 99.1385 138.013C98.9573 137.651 98.6981 137.365 98.3608 137.155C98.0269 136.946 97.6328 136.841 97.1782 136.841C96.6775 136.841 96.2443 136.965 95.8785 137.214C95.5163 137.459 95.2375 137.778 95.0422 138.173C94.8469 138.567 94.7492 138.989 94.7492 139.44V140.165C94.7492 140.783 94.8558 141.306 95.0688 141.736C95.2855 142.162 95.5855 142.487 95.9691 142.711C96.3526 142.931 96.7983 143.041 97.3061 143.041C97.6363 143.041 97.9346 142.995 98.201 142.903C98.4708 142.807 98.7034 142.665 98.8987 142.477C99.0941 142.285 99.245 142.047 99.3515 141.763L100.566 142.104C100.438 142.516 100.223 142.878 99.9215 143.19C99.6196 143.499 99.2468 143.741 98.8029 143.915C98.359 144.085 97.86 144.17 97.3061 144.17ZM104.46 144L101.967 135.818H103.288L105.056 142.082H105.142L106.889 135.818H108.231L109.957 142.061H110.042L111.811 135.818H113.132L110.639 144H109.403L107.613 137.714H107.485L105.696 144H104.46ZM118.586 134.263V133.091H126.768V134.263H123.338V144H122.017V134.263H118.586ZM129.894 139.078V144H128.636V133.091H129.894V137.097H130C130.192 136.674 130.479 136.338 130.863 136.09C131.25 135.838 131.765 135.712 132.408 135.712C132.965 135.712 133.454 135.824 133.873 136.047C134.292 136.267 134.617 136.607 134.847 137.065C135.082 137.519 135.199 138.098 135.199 138.801V144H133.942V138.886C133.942 138.237 133.773 137.734 133.436 137.379C133.102 137.02 132.639 136.841 132.045 136.841C131.634 136.841 131.264 136.928 130.938 137.102C130.614 137.276 130.359 137.53 130.17 137.864C129.986 138.197 129.894 138.602 129.894 139.078ZM142.655 140.655V135.818H143.912V144H142.655V142.615H142.57C142.378 143.031 142.08 143.384 141.675 143.675C141.27 143.963 140.759 144.107 140.141 144.107C139.629 144.107 139.175 143.995 138.777 143.771C138.379 143.544 138.067 143.203 137.84 142.748C137.612 142.29 137.499 141.713 137.499 141.017V135.818H138.756V140.932C138.756 141.528 138.923 142.004 139.257 142.359C139.594 142.714 140.024 142.892 140.546 142.892C140.858 142.892 141.176 142.812 141.499 142.652C141.826 142.493 142.099 142.248 142.319 141.917C142.543 141.587 142.655 141.166 142.655 140.655ZM146.215 144V135.818H147.429V137.097H147.536C147.706 136.66 147.981 136.321 148.361 136.079C148.741 135.834 149.197 135.712 149.73 135.712C150.27 135.712 150.719 135.834 151.078 136.079C151.44 136.321 151.722 136.66 151.925 137.097H152.01C152.22 136.674 152.534 136.338 152.953 136.09C153.372 135.838 153.874 135.712 154.46 135.712C155.192 135.712 155.79 135.941 156.255 136.399C156.721 136.853 156.953 137.562 156.953 138.524V144H155.696V138.524C155.696 137.92 155.531 137.489 155.201 137.23C154.87 136.971 154.482 136.841 154.034 136.841C153.459 136.841 153.013 137.015 152.697 137.363C152.381 137.707 152.223 138.144 152.223 138.673V144H150.945V138.396C150.945 137.931 150.794 137.556 150.492 137.272C150.19 136.985 149.801 136.841 149.325 136.841C148.999 136.841 148.693 136.928 148.409 137.102C148.129 137.276 147.901 137.517 147.727 137.826C147.557 138.132 147.472 138.485 147.472 138.886V144H146.215ZM159.422 144V133.091H160.679V137.118H160.786C160.878 136.976 161.006 136.795 161.169 136.575C161.336 136.351 161.574 136.152 161.883 135.978C162.196 135.8 162.618 135.712 163.151 135.712C163.84 135.712 164.447 135.884 164.973 136.228C165.498 136.573 165.908 137.061 166.203 137.693C166.498 138.325 166.645 139.071 166.645 139.93C166.645 140.797 166.498 141.548 166.203 142.184C165.908 142.816 165.5 143.306 164.978 143.654C164.456 143.998 163.854 144.17 163.172 144.17C162.647 144.17 162.226 144.083 161.91 143.909C161.594 143.732 161.35 143.531 161.18 143.308C161.009 143.08 160.878 142.892 160.786 142.743H160.637V144H159.422ZM160.658 139.909C160.658 140.527 160.748 141.072 160.93 141.544C161.111 142.013 161.375 142.381 161.723 142.647C162.071 142.91 162.497 143.041 163.002 143.041C163.527 143.041 163.966 142.903 164.317 142.626C164.672 142.345 164.939 141.969 165.116 141.496C165.297 141.021 165.388 140.491 165.388 139.909C165.388 139.334 165.299 138.815 165.122 138.354C164.948 137.888 164.683 137.521 164.328 137.251C163.976 136.978 163.534 136.841 163.002 136.841C162.49 136.841 162.061 136.971 161.713 137.23C161.365 137.485 161.102 137.844 160.924 138.306C160.747 138.764 160.658 139.298 160.658 139.909ZM169.825 139.078V144H168.568V135.818H169.783V137.097H169.889C170.081 136.681 170.372 136.347 170.763 136.095C171.153 135.839 171.658 135.712 172.275 135.712C172.829 135.712 173.314 135.825 173.73 136.053C174.145 136.276 174.468 136.617 174.699 137.075C174.93 137.53 175.045 138.105 175.045 138.801V144H173.788V138.886C173.788 138.244 173.621 137.743 173.288 137.384C172.954 137.022 172.496 136.841 171.913 136.841C171.512 136.841 171.153 136.928 170.837 137.102C170.525 137.276 170.278 137.53 170.097 137.864C169.916 138.197 169.825 138.602 169.825 139.078ZM179.75 144.192C179.232 144.192 178.761 144.094 178.339 143.899C177.916 143.7 177.58 143.414 177.332 143.041C177.083 142.665 176.959 142.21 176.959 141.678C176.959 141.209 177.051 140.829 177.236 140.538C177.421 140.243 177.667 140.012 177.976 139.845C178.285 139.678 178.626 139.554 178.999 139.472C179.375 139.387 179.754 139.32 180.134 139.27C180.631 139.206 181.034 139.158 181.343 139.126C181.655 139.091 181.883 139.032 182.025 138.95C182.17 138.869 182.243 138.727 182.243 138.524V138.482C182.243 137.956 182.099 137.548 181.812 137.256C181.527 136.965 181.096 136.82 180.517 136.82C179.917 136.82 179.447 136.951 179.106 137.214C178.765 137.477 178.525 137.757 178.386 138.055L177.193 137.629C177.406 137.132 177.69 136.745 178.046 136.468C178.404 136.187 178.795 135.992 179.217 135.882C179.644 135.768 180.063 135.712 180.475 135.712C180.737 135.712 181.039 135.744 181.38 135.808C181.725 135.868 182.057 135.994 182.376 136.186C182.699 136.377 182.967 136.667 183.181 137.054C183.394 137.441 183.5 137.96 183.5 138.609V144H182.243V142.892H182.179C182.094 143.07 181.952 143.26 181.753 143.462C181.554 143.664 181.29 143.837 180.959 143.979C180.629 144.121 180.226 144.192 179.75 144.192ZM179.942 143.062C180.439 143.062 180.858 142.965 181.199 142.77C181.543 142.574 181.803 142.322 181.977 142.013C182.154 141.704 182.243 141.379 182.243 141.038V139.888C182.19 139.952 182.073 140.01 181.891 140.064C181.714 140.113 181.508 140.158 181.274 140.197C181.043 140.232 180.817 140.264 180.597 140.293C180.38 140.317 180.205 140.339 180.07 140.357C179.743 140.399 179.438 140.468 179.154 140.564C178.873 140.657 178.646 140.797 178.472 140.985C178.301 141.17 178.216 141.422 178.216 141.741C178.216 142.178 178.378 142.509 178.701 142.732C179.027 142.952 179.441 143.062 179.942 143.062ZM185.795 144V135.818H187.052V144H185.795ZM186.434 134.455C186.189 134.455 185.977 134.371 185.8 134.204C185.626 134.037 185.539 133.837 185.539 133.602C185.539 133.368 185.626 133.167 185.8 133C185.977 132.833 186.189 132.75 186.434 132.75C186.679 132.75 186.888 132.833 187.062 133C187.24 133.167 187.329 133.368 187.329 133.602C187.329 133.837 187.24 134.037 187.062 134.204C186.888 134.371 186.679 134.455 186.434 134.455ZM190.611 133.091V144H189.354V133.091H190.611ZM79.5255 151.091H80.8465V158.314C80.8465 159.06 80.6708 159.725 80.3192 160.311C79.9712 160.894 79.4794 161.354 78.8437 161.691C78.2081 162.025 77.4623 162.192 76.6065 162.192C75.7507 162.192 75.0049 162.025 74.3693 161.691C73.7336 161.354 73.24 160.894 72.8884 160.311C72.5404 159.725 72.3664 159.06 72.3664 158.314V151.091H73.6875V158.207C73.6875 158.74 73.8046 159.214 74.039 159.63C74.2734 160.042 74.6072 160.366 75.0404 160.604C75.4772 160.839 75.9992 160.956 76.6065 160.956C77.2137 160.956 77.7358 160.839 78.1725 160.604C78.6093 160.366 78.9431 160.042 79.174 159.63C79.4083 159.214 79.5255 158.74 79.5255 158.207V151.091ZM83.3141 165.068V153.818H84.5286V155.118H84.6778C84.7701 154.976 84.8979 154.795 85.0613 154.575C85.2282 154.351 85.4661 154.152 85.7751 153.978C86.0876 153.8 86.5102 153.712 87.0428 153.712C87.7318 153.712 88.339 153.884 88.8646 154.228C89.3901 154.573 89.8003 155.061 90.095 155.693C90.3898 156.325 90.5372 157.071 90.5372 157.93C90.5372 158.797 90.3898 159.548 90.095 160.184C89.8003 160.816 89.3919 161.306 88.8699 161.654C88.3479 161.998 87.746 162.17 87.0641 162.17C86.5386 162.17 86.1178 162.083 85.8017 161.909C85.4857 161.732 85.2424 161.531 85.072 161.308C84.9015 161.08 84.7701 160.892 84.6778 160.743H84.5712V165.068H83.3141ZM84.5499 157.909C84.5499 158.527 84.6405 159.072 84.8216 159.544C85.0027 160.013 85.2673 160.381 85.6153 160.647C85.9633 160.91 86.3894 161.041 86.8937 161.041C87.4193 161.041 87.8578 160.903 88.2094 160.626C88.5645 160.345 88.8308 159.969 89.0084 159.496C89.1895 159.021 89.2801 158.491 89.2801 157.909C89.2801 157.334 89.1913 156.815 89.0137 156.354C88.8397 155.888 88.5752 155.521 88.22 155.251C87.8685 154.978 87.4264 154.841 86.8937 154.841C86.3823 154.841 85.9526 154.971 85.6046 155.23C85.2566 155.485 84.9938 155.844 84.8163 156.306C84.6387 156.764 84.5499 157.298 84.5499 157.909ZM93.7119 151.091V162H92.4548V151.091H93.7119ZM99.3382 162.17C98.5996 162.17 97.9515 161.995 97.394 161.643C96.84 161.292 96.4067 160.8 96.0942 160.168C95.7853 159.536 95.6308 158.797 95.6308 157.952C95.6308 157.099 95.7853 156.355 96.0942 155.72C96.4067 155.084 96.84 154.591 97.394 154.239C97.9515 153.887 98.5996 153.712 99.3382 153.712C100.077 153.712 100.723 153.887 101.277 154.239C101.835 154.591 102.268 155.084 102.577 155.72C102.889 156.355 103.046 157.099 103.046 157.952C103.046 158.797 102.889 159.536 102.577 160.168C102.268 160.8 101.835 161.292 101.277 161.643C100.723 161.995 100.077 162.17 99.3382 162.17ZM99.3382 161.041C99.8993 161.041 100.361 160.897 100.723 160.61C101.085 160.322 101.353 159.944 101.527 159.475C101.701 159.006 101.788 158.499 101.788 157.952C101.788 157.405 101.701 156.895 101.527 156.423C101.353 155.951 101.085 155.569 100.723 155.278C100.361 154.987 99.8993 154.841 99.3382 154.841C98.7771 154.841 98.3155 154.987 97.9533 155.278C97.591 155.569 97.3229 155.951 97.1489 156.423C96.9749 156.895 96.8879 157.405 96.8879 157.952C96.8879 158.499 96.9749 159.006 97.1489 159.475C97.3229 159.944 97.591 160.322 97.9533 160.61C98.3155 160.897 98.7771 161.041 99.3382 161.041ZM107.372 162.192C106.854 162.192 106.383 162.094 105.961 161.899C105.538 161.7 105.202 161.414 104.954 161.041C104.705 160.665 104.581 160.21 104.581 159.678C104.581 159.209 104.673 158.829 104.858 158.538C105.043 158.243 105.289 158.012 105.598 157.845C105.907 157.678 106.248 157.554 106.621 157.472C106.998 157.387 107.376 157.32 107.756 157.27C108.253 157.206 108.656 157.158 108.965 157.126C109.277 157.091 109.505 157.032 109.647 156.95C109.792 156.869 109.865 156.727 109.865 156.524V156.482C109.865 155.956 109.721 155.548 109.434 155.256C109.15 154.965 108.718 154.82 108.139 154.82C107.539 154.82 107.069 154.951 106.728 155.214C106.387 155.477 106.147 155.757 106.009 156.055L104.815 155.629C105.028 155.132 105.313 154.745 105.668 154.468C106.026 154.187 106.417 153.992 106.84 153.882C107.266 153.768 107.685 153.712 108.097 153.712C108.359 153.712 108.661 153.744 109.002 153.808C109.347 153.868 109.679 153.994 109.998 154.186C110.321 154.377 110.59 154.667 110.803 155.054C111.016 155.441 111.122 155.96 111.122 156.609V162H109.865V160.892H109.801C109.716 161.07 109.574 161.26 109.375 161.462C109.176 161.664 108.912 161.837 108.581 161.979C108.251 162.121 107.848 162.192 107.372 162.192ZM107.564 161.062C108.061 161.062 108.48 160.965 108.821 160.77C109.166 160.574 109.425 160.322 109.599 160.013C109.776 159.704 109.865 159.379 109.865 159.038V157.888C109.812 157.952 109.695 158.01 109.514 158.064C109.336 158.113 109.13 158.158 108.896 158.197C108.665 158.232 108.439 158.264 108.219 158.293C108.003 158.317 107.827 158.339 107.692 158.357C107.365 158.399 107.06 158.468 106.776 158.564C106.495 158.657 106.268 158.797 106.094 158.985C105.923 159.17 105.838 159.422 105.838 159.741C105.838 160.178 106 160.509 106.323 160.732C106.65 160.952 107.063 161.062 107.564 161.062ZM116.506 162.17C115.824 162.17 115.222 161.998 114.7 161.654C114.178 161.306 113.77 160.816 113.475 160.184C113.181 159.548 113.033 158.797 113.033 157.93C113.033 157.071 113.181 156.325 113.475 155.693C113.77 155.061 114.18 154.573 114.706 154.228C115.231 153.884 115.839 153.712 116.527 153.712C117.06 153.712 117.481 153.8 117.79 153.978C118.102 154.152 118.34 154.351 118.504 154.575C118.671 154.795 118.8 154.976 118.893 155.118H118.999V151.091H120.256V162H119.042V160.743H118.893C118.8 160.892 118.669 161.08 118.498 161.308C118.328 161.531 118.085 161.732 117.769 161.909C117.453 162.083 117.032 162.17 116.506 162.17ZM116.677 161.041C117.181 161.041 117.607 160.91 117.955 160.647C118.303 160.381 118.568 160.013 118.749 159.544C118.93 159.072 119.02 158.527 119.02 157.909C119.02 157.298 118.932 156.764 118.754 156.306C118.576 155.844 118.314 155.485 117.966 155.23C117.618 154.971 117.188 154.841 116.677 154.841C116.144 154.841 115.7 154.978 115.345 155.251C114.993 155.521 114.729 155.888 114.551 156.354C114.377 156.815 114.29 157.334 114.29 157.909C114.29 158.491 114.379 159.021 114.557 159.496C114.738 159.969 115.004 160.345 115.356 160.626C115.711 160.903 116.151 161.041 116.677 161.041ZM135.773 151.091V162H134.494L128.55 153.435H128.443V162H127.122V151.091H128.401L134.367 159.678H134.473V151.091H135.773ZM141.57 162.17C140.831 162.17 140.183 161.995 139.625 161.643C139.071 161.292 138.638 160.8 138.326 160.168C138.017 159.536 137.862 158.797 137.862 157.952C137.862 157.099 138.017 156.355 138.326 155.72C138.638 155.084 139.071 154.591 139.625 154.239C140.183 153.887 140.831 153.712 141.57 153.712C142.308 153.712 142.955 153.887 143.509 154.239C144.066 154.591 144.499 155.084 144.808 155.72C145.121 156.355 145.277 157.099 145.277 157.952C145.277 158.797 145.121 159.536 144.808 160.168C144.499 160.8 144.066 161.292 143.509 161.643C142.955 161.995 142.308 162.17 141.57 162.17ZM141.57 161.041C142.131 161.041 142.592 160.897 142.955 160.61C143.317 160.322 143.585 159.944 143.759 159.475C143.933 159.006 144.02 158.499 144.02 157.952C144.02 157.405 143.933 156.895 143.759 156.423C143.585 155.951 143.317 155.569 142.955 155.278C142.592 154.987 142.131 154.841 141.57 154.841C141.009 154.841 140.547 154.987 140.185 155.278C139.822 155.569 139.554 155.951 139.38 156.423C139.206 156.895 139.119 157.405 139.119 157.952C139.119 158.499 139.206 159.006 139.38 159.475C139.554 159.944 139.822 160.322 140.185 160.61C140.547 160.897 141.009 161.041 141.57 161.041ZM148.771 162L146.278 153.818H147.599L149.368 160.082H149.453L151.2 153.818H152.543L154.269 160.061H154.354L156.122 153.818H157.443L154.95 162H153.715L151.925 155.714H151.797L150.007 162H148.771Z" fill="white"/>
<defs>
<linearGradient id="paint0_linear_3_2" x1="54" y1="88" x2="194" y2="88" gradientUnits="userSpaceOnUse">
<stop stop-color="#0FC115"/>
<stop offset="0.49" stop-color="#B3DEB4"/>
<stop offset="0.8" stop-color="#0B7A68"/>
</linearGradient>
</defs>
</svg>
