<svg width="67" height="65" viewBox="0 0 67 65" fill="none" xmlns="http://www.w3.org/2000/svg">
<ellipse cx="33.5" cy="32.5" rx="33.5" ry="32.5" fill="black"/>
<path d="M31.4604 24.808L31.3004 32.52H36.3564L36.6124 30.216C37.2097 30.216 37.8497 30.3973 38.5324 30.76V36.84L37.4124 36.936C37.0924 36.0187 36.879 35.2507 36.7724 34.632H31.3004C31.2577 36.488 31.215 39.2293 31.1724 42.856H38.5004L39.2684 39.848L41.1244 39.976C41.423 41.192 41.5724 42.2693 41.5724 43.208C41.5724 44.1253 41.551 44.7227 41.5084 45H25.9564L25.8604 43.88C26.799 43.5387 27.7057 43.2933 28.5804 43.144C28.4524 34.824 28.3457 28.6373 28.2604 24.584C27.791 24.5413 26.8524 24.2853 25.4444 23.816L25.6044 22.6H41.0284C41.071 22.8773 41.0924 23.304 41.0924 23.88C41.0924 25.0533 40.943 26.3227 40.6444 27.688C40.175 27.7947 39.5564 27.848 38.7884 27.848L38.0204 24.808H31.4604Z" fill="url(#paint0_linear_4_4)"/>
<defs>
<linearGradient id="paint0_linear_4_4" x1="34" y1="13" x2="34" y2="55" gradientUnits="userSpaceOnUse">
<stop stopColor="#10D110"/>
<stop offset="1" stopColor="#651A1A"/>
</linearGradient>
</defs>
</svg>
